<svg width="126" height="27" viewBox="0 0 126 27" fill="none" xmlns="http://www.w3.org/2000/svg">
<g clip-path="url(#clip0_95_41)">
<path d="M14.9409 26.6838C11.7173 26.6838 8.49376 26.6888 5.27021 26.6796C4.69537 26.6774 4.11101 26.6654 3.54639 26.568C0.768942 26.0884 -0.509447 24.2425 0.185937 21.4075C0.732845 19.1807 1.53652 17.0214 2.25915 14.8436C3.10709 12.2879 3.90396 9.70864 4.8779 7.20475C6.63441 2.68509 9.9506 0.38867 14.6058 0.341064C20.7158 0.278538 26.8264 0.305538 32.9371 0.323301C34.3319 0.326854 35.7077 0.431301 36.8731 1.46228C38.9708 3.31817 38.996 5.66078 38.2229 8.06449C36.9698 11.9624 35.6212 15.8291 34.1957 19.6617C32.4372 24.3895 29.2994 26.6064 24.4672 26.6654C21.292 26.7044 18.1161 26.6732 14.9402 26.6732L14.9409 26.6838ZM19.0927 4.80246C18.0139 4.8593 17.3253 5.41849 16.9576 6.49138C15.3918 11.0629 13.7817 15.6188 12.2377 20.1989C11.795 21.5119 12.2983 22.2196 13.655 22.2686C15.4292 22.3347 17.2082 22.3525 18.9824 22.2999C21.0052 22.2395 21.6454 21.6789 22.332 19.6589C23.5034 16.2156 24.6899 12.7767 25.8613 9.33349C26.1978 8.34443 26.5554 7.3568 26.8087 6.34359C27.0689 5.30267 26.6555 4.69801 25.5657 4.70512C24.6545 4.71151 20.3378 4.73709 19.0927 4.80246ZM119.759 26.6838C118.221 26.6838 116.68 26.6455 115.143 26.6959C113.981 26.735 113.36 26.3044 113.241 25.0233C113.115 23.6797 112.814 22.3532 112.629 21.0145C112.496 20.0553 112.047 19.6525 111.086 19.6624C107.432 19.7043 103.777 19.6951 100.122 19.6738C99.2485 19.6688 98.566 19.9296 97.9538 20.6138C96.5119 22.2253 94.9475 23.7216 93.556 25.3786C92.7483 26.3399 92.0318 26.7073 90.6798 26.7073C89.3279 26.7073 88.1067 26.6817 87.9398 26.6817C87.7723 26.6817 87.1614 26.7073 87.0415 26.3868C86.9039 26.0159 87.2499 25.7523 87.4774 25.5029C89.663 23.1028 104.423 6.89567 109.603 1.17806C110.097 0.63238 110.653 0.33538 111.374 0.336801C114.595 0.343196 117.817 0.330406 121.039 0.344617C121.951 0.34817 122.531 0.676433 122.68 1.7948C123.537 8.19735 125.725 23.873 125.962 25.3047C126.129 26.3165 125.738 26.6874 124.808 26.6739C123.125 26.6511 121.442 26.6668 119.759 26.6668V26.6838ZM110.614 15.1427C111.532 15.1562 111.97 14.7484 111.797 13.7629C111.445 11.7429 111.081 9.72783 110.741 7.70709C110.566 6.66546 110.18 6.68678 109.571 7.38878C107.641 9.61343 105.699 11.8281 103.765 14.0492C103.573 14.2688 103.321 14.5075 103.419 14.8244C103.552 15.255 103.965 15.1669 104.281 15.1726C105.337 15.1896 109.559 15.1264 110.614 15.1427ZM69.0119 26.6959C69.9988 26.6959 76.2654 26.703 78.5314 26.703C80.7973 26.703 81.6351 26.0188 82.784 24.5558C87.0769 19.089 91.4556 13.6961 95.809 8.28049C97.6302 6.01533 99.4664 3.76296 101.294 1.50206C101.506 1.24059 101.826 0.979828 101.648 0.595433C101.471 0.212459 101.074 0.309091 100.744 0.306959C99.8301 0.303406 98.9127 0.365222 98.0042 0.292749C96.8354 0.19967 96.059 0.674301 95.3112 1.62143C90.9127 7.19551 86.4619 12.7234 81.9974 18.2399C81.507 18.846 80.8355 19.8578 80.2681 19.6759C79.7008 19.4926 79.6375 18.2541 79.5605 17.4463C79.0858 12.506 78.6581 7.5593 78.2262 2.61404C78.0362 0.434143 77.9599 0.332538 75.9208 0.326854C73.1794 0.318328 70.4374 0.333249 67.6961 0.33538C65.4601 0.337512 65.3831 0.355985 65.5752 2.6858C66.1949 10.2302 66.8692 17.7696 67.5122 25.3111C67.5953 26.2938 68.025 26.6959 69.0119 26.6959ZM49.516 26.6845C52.8846 26.6845 56.2519 26.6874 59.6198 26.6838C62.5273 26.6796 62.4735 26.6547 63.4516 23.7231C63.8439 22.5486 63.504 22.3198 62.4728 22.3297C59.1533 22.3603 55.833 22.3446 52.5141 22.339C49.8653 22.3347 49.881 22.3006 50.7977 19.6979C52.8839 13.7672 54.9094 7.81438 56.9854 1.87935C57.3797 0.75317 57.1325 0.310512 55.9426 0.327564C53.0562 0.367354 50.1671 0.396485 47.2834 0.295591C45.8763 0.245854 45.2272 0.84767 44.7804 2.17706C42.2046 9.83867 39.5844 17.4854 36.9262 25.1171C36.4998 26.3406 36.6994 26.7364 37.9703 26.7186C41.8184 26.671 45.6679 26.7016 49.516 26.7016V26.6845Z" fill="#F9B52F"/>
</g>
<defs>
<clipPath id="clip0_95_41">
<rect width="126" height="27" fill="white"/>
</clipPath>
</defs>
</svg>